{"glyphs":{" ":{"ha":297,"x_min":0,"x_max":0,"o":""},"A":{"ha":595,"x_min":0,"x_max":595,"o":"m 0 0 l 0 793 l 198 793 l 198 0 l 0 0 m 397 0 l 397 397 q 257 454 315 397 q 198 594 199 512 q 228 525 199 553 q 297 496 257 496 q 368 525 338 496 q 397 595 397 554 l 397 793 l 595 793 l 595 0 l 397 0 m 198 793 l 198 992 l 397 992 l 397 793 l 198 793 z "},"B":{"ha":595,"x_min":0,"x_max":595,"o":"m 397 198 l 397 397 l 595 397 l 595 198 l 397 198 m 397 397 q 257 454 315 397 q 198 594 199 512 q 228 525 199 553 q 297 496 257 496 q 368 525 338 496 q 397 595 397 554 l 397 397 l 397 397 m 0 0 l 0 793 l 198 793 l 198 198 l 397 198 l 397 0 l 0 0 m 397 595 l 397 793 l 595 793 l 595 595 l 397 595 m 198 793 l 198 992 l 397 992 l 397 793 l 198 793 z "},"C":{"ha":595,"x_min":0,"x_max":595,"o":"m 198 0 l 198 198 l 397 198 l 397 0 l 198 0 m 397 198 l 397 397 l 595 397 l 595 198 l 397 198 m 197 0 q 58 58 115 0 q 0 198 0 116 l 0 793 l 198 793 l 198 198 q 128 169 157 198 q 99 99 99 140 q 127 30 99 58 q 197 0 156 0 l 197 0 m 198 793 l 198 992 l 496 992 q 566 963 537 992 q 595 893 595 934 q 566 823 595 852 q 496 793 537 793 l 198 793 z "},"D":{"ha":595,"x_min":0,"x_max":595,"o":"m 198 0 q 338 58 280 0 q 397 198 397 116 l 397 0 l 198 0 m 397 198 l 397 793 l 595 793 l 595 198 l 397 198 m 0 0 l 0 992 l 397 992 l 397 793 l 198 793 l 198 0 l 0 0 z "},"E":{"ha":595,"x_min":0,"x_max":595,"o":"m 198 0 l 198 198 l 397 198 l 397 0 l 198 0 m 397 198 l 397 397 l 595 397 l 595 198 l 397 198 m 0 198 l 0 793 l 198 793 l 198 595 q 338 537 280 595 q 397 398 396 480 l 397 398 q 367 467 396 438 q 297 496 338 496 q 227 467 256 496 q 198 397 198 438 l 198 198 l 0 198 m 397 595 l 397 793 l 595 793 l 595 595 l 397 595 m 198 793 l 198 992 l 397 992 l 397 793 l 198 793 z "},"F":{"ha":595,"x_min":0,"x_max":595,"o":"m 0 0 l 0 793 l 198 793 l 198 595 q 338 537 280 595 q 397 398 396 480 l 397 398 q 367 467 396 438 q 297 496 338 496 q 227 467 256 496 q 198 397 198 438 l 198 0 l 0 0 m 397 595 l 397 793 l 595 793 l 595 595 l 397 595 m 198 793 l 198 992 l 397 992 l 397 793 l 198 793 z "},"G":{"ha":595,"x_min":0,"x_max":595,"o":"m 198 0 l 198 198 l 397 198 l 397 0 l 198 0 m 397 198 l 397 397 q 257 454 315 397 q 198 594 199 512 q 228 525 199 553 q 297 496 257 496 q 368 525 338 496 q 397 595 397 554 l 595 595 l 595 198 l 397 198 m 0 198 l 0 793 l 198 793 l 198 198 l 0 198 m 198 793 l 198 992 l 496 992 q 566 963 537 992 q 595 893 595 934 q 566 823 595 852 q 496 793 537 793 l 198 793 z "},"H":{"ha":595,"x_min":0,"x_max":595,"o":"m 397 0 l 397 397 q 257 454 315 397 q 198 594 199 512 q 228 525 199 553 q 297 496 257 496 q 368 525 338 496 q 397 595 397 554 l 397 793 l 595 793 l 595 0 l 397 0 m 99 99 q 29 128 58 99 q 0 198 0 157 l 0 992 l 198 992 l 198 198 q 169 128 198 157 q 99 99 140 99 l 99 99 z "},"I":{"ha":595,"x_min":0,"x_max":595,"o":"m 198 0 l 198 397 l 397 397 l 397 0 l 198 0 m 0 397 l 0 595 l 198 595 l 198 397 l 0 397 m 397 397 l 397 595 l 595 595 l 595 397 l 397 397 m 198 595 l 198 992 l 397 992 l 397 595 l 198 595 z "},"J":{"ha":595,"x_min":0,"x_max":595,"o":"m 198 0 l 198 198 l 397 198 l 397 0 l 198 0 m 0 198 q 58 338 0 280 q 197 397 115 396 q 127 367 156 396 q 99 297 99 338 q 128 227 99 256 q 198 198 157 198 l 0 198 m 397 198 l 397 595 l 595 595 l 595 198 l 397 198 m 198 595 l 198 793 l 0 793 l 0 992 l 595 992 l 595 793 l 397 793 l 397 595 l 198 595 z "},"K":{"ha":595,"x_min":0,"x_max":595,"o":"m 398 0 l 398 0 q 467 30 438 0 q 496 99 496 58 q 467 169 496 140 q 397 198 438 198 l 397 397 l 595 397 l 595 198 q 537 58 595 116 q 398 0 480 0 l 398 0 m 0 0 l 0 992 l 198 992 l 198 595 l 397 595 l 397 397 l 198 397 l 198 0 l 0 0 m 397 595 l 397 793 l 496 793 q 467 934 496 876 q 397 992 438 992 q 537 934 479 992 q 595 793 595 876 l 595 595 l 397 595 z "},"L":{"ha":595,"x_min":0,"x_max":595,"o":"m 198 0 l 198 198 l 595 198 l 595 0 l 198 0 m 0 198 l 0 793 q 58 933 0 876 q 197 992 115 991 q 127 962 156 991 q 99 893 99 933 q 128 823 99 852 q 198 793 157 793 l 198 198 l 0 198 z "},"M":{"ha":992,"x_min":0,"x_max":992,"o":"m 496 496 q 426 525 455 496 q 397 595 397 554 l 397 793 l 595 793 l 595 595 q 566 525 595 554 q 496 496 537 496 l 496 496 m 793 0 l 793 793 l 893 793 q 963 823 934 793 q 992 893 992 852 l 992 0 l 793 0 m 0 0 l 0 992 q 58 852 0 910 q 198 793 116 793 l 198 0 l 0 0 m 198 793 l 198 992 l 397 992 l 397 793 l 198 793 m 595 793 l 595 992 l 793 992 l 793 793 l 595 793 z "},"N":{"ha":793,"x_min":0,"x_max":793,"o":"m 0 0 l 0 992 l 198 992 l 198 793 l 397 793 l 397 595 l 198 595 l 198 0 l 0 0 m 595 0 l 595 397 l 397 397 l 397 595 l 595 595 l 595 992 l 793 992 l 793 0 l 595 0 z "},"O":{"ha":595,"x_min":0,"x_max":595,"o":"m 397 0 q 257 58 315 0 q 198 197 199 115 q 228 127 199 156 q 297 99 257 99 q 368 128 338 99 q 397 198 397 157 l 397 0 l 397 0 m 0 198 l 0 793 l 198 793 l 198 198 l 0 198 m 397 198 l 397 793 l 595 793 l 595 198 l 397 198 m 198 793 l 198 992 q 338 934 280 992 q 397 795 396 877 l 397 795 q 367 864 396 836 q 297 893 338 893 q 227 864 256 893 q 198 793 198 834 l 198 793 z "},"P":{"ha":595,"x_min":0,"x_max":595,"o":"m 397 397 q 257 454 315 397 q 198 594 199 512 q 228 525 199 553 q 297 496 257 496 q 368 525 338 496 q 397 595 397 554 l 397 397 l 397 397 m 0 0 l 0 793 l 198 793 l 198 0 l 0 0 m 397 595 l 397 793 l 595 793 l 595 595 l 397 595 m 198 793 l 198 992 l 397 992 l 397 793 l 198 793 z "},"Q":{"ha":793,"x_min":0,"x_max":793,"o":"m 397 0 q 257 58 315 0 q 198 197 199 115 q 228 127 199 156 q 297 99 257 99 q 368 128 338 99 q 397 198 397 157 l 397 0 l 397 0 m 0 198 l 0 793 l 198 793 l 198 198 l 0 198 m 397 198 l 397 793 l 595 793 l 595 397 q 624 327 595 356 q 694 297 653 297 q 764 326 735 297 q 793 395 793 355 q 735 256 793 314 q 595 198 677 198 l 397 198 m 198 793 l 198 992 q 338 934 280 992 q 397 795 396 877 l 397 795 q 367 864 396 836 q 297 893 338 893 q 227 864 256 893 q 198 793 198 834 l 198 793 z "},"R":{"ha":595,"x_min":0,"x_max":595,"o":"m 397 0 l 397 397 l 595 397 l 595 0 l 397 0 m 198 397 q 338 455 280 397 q 397 595 397 513 l 397 397 l 198 397 m 0 0 l 0 793 l 198 793 l 198 0 l 0 0 m 397 595 l 397 793 l 595 793 l 595 595 l 397 595 m 198 793 l 198 992 l 397 992 l 397 793 l 198 793 z "},"S":{"ha":595,"x_min":0,"x_max":595,"o":"m 0 0 l 0 198 l 397 198 l 397 0 l 0 0 m 397 198 l 397 397 l 595 397 l 595 198 l 397 198 m 397 397 q 257 454 315 397 q 198 594 199 512 q 228 525 199 553 q 297 496 257 496 q 368 525 338 496 q 397 595 397 554 l 397 397 l 397 397 m 0 595 l 0 793 l 198 793 l 198 595 l 0 595 m 198 793 l 198 992 l 595 992 l 595 793 l 198 793 z "},"T":{"ha":595,"x_min":0,"x_max":595,"o":"m 198 0 l 198 793 l 397 793 l 397 0 l 198 0 m 0 793 l 0 992 l 198 992 l 198 793 l 0 793 m 397 793 l 397 992 l 595 992 l 595 793 l 397 793 z "},"U":{"ha":595,"x_min":0,"x_max":595,"o":"m 198 0 l 198 198 l 397 198 l 397 0 l 198 0 m 0 198 l 0 793 q 58 933 0 876 q 197 992 115 991 q 127 962 156 991 q 99 893 99 933 q 128 823 99 852 q 198 793 157 793 l 198 198 l 0 198 m 397 198 l 397 992 l 595 992 l 595 198 l 397 198 z "},"V":{"ha":595,"x_min":0,"x_max":595,"o":"m 395 0 l 395 0 q 256 58 314 0 q 198 198 198 116 l 397 198 q 327 169 356 198 q 297 99 297 140 q 326 30 297 58 q 395 0 355 0 l 395 0 m 0 198 l 0 992 l 198 992 l 198 198 l 0 198 m 397 198 l 397 992 l 595 992 l 595 198 l 397 198 z "},"W":{"ha":992,"x_min":0,"x_max":992,"o":"m 198 0 l 198 198 l 397 198 l 397 0 l 198 0 m 595 0 l 595 198 l 793 198 l 793 0 l 595 0 m 496 198 q 467 339 496 280 q 397 397 438 397 q 537 339 479 397 q 595 198 595 280 l 496 198 m 0 198 l 0 992 l 198 992 l 198 198 l 0 198 m 793 198 l 793 992 l 992 992 l 992 198 l 793 198 z "},"X":{"ha":595,"x_min":0,"x_max":595,"o":"m 0 198 l 0 397 l 198 397 l 198 198 l 0 198 m 397 0 l 397 397 l 595 397 l 595 0 l 397 0 m 198 397 l 198 595 l 397 595 l 397 397 l 198 397 m 397 595 l 397 793 l 595 793 l 595 595 l 397 595 m 0 595 l 0 992 l 198 992 l 198 595 l 0 595 z "},"Y":{"ha":595,"x_min":0,"x_max":595,"o":"m 198 0 q 58 58 116 0 q 0 197 0 115 q 30 127 0 156 q 99 99 58 99 q 169 128 140 99 q 198 198 198 157 l 397 198 l 397 0 l 198 0 m 0 595 l 0 992 l 198 992 l 198 595 l 0 595 m 397 198 l 397 397 l 198 397 l 198 595 l 397 595 l 397 992 l 595 992 l 595 198 l 397 198 z "},"Z":{"ha":595,"x_min":0,"x_max":595,"o":"m 0 0 l 0 397 l 198 397 l 198 198 l 595 198 l 595 0 l 0 0 m 198 397 l 198 595 q 227 525 198 554 q 297 496 256 496 q 367 525 338 496 q 397 594 396 553 q 338 454 396 512 q 198 397 280 397 l 198 397 m 397 595 l 397 793 l 0 793 l 0 992 l 595 992 l 595 595 l 397 595 z "},"a":{"ha":595,"x_min":0,"x_max":595,"o":"m 99 198 q 29 227 58 198 q 0 297 0 256 q 29 368 0 338 q 99 397 58 397 l 198 397 l 198 198 l 99 198 m 297 0 q 227 29 256 0 q 198 99 198 58 l 198 198 l 397 198 l 397 397 l 595 397 l 595 0 l 397 0 l 397 99 q 368 29 397 58 q 297 0 338 0 l 297 0 m 198 397 l 198 496 q 227 566 198 537 q 297 595 256 595 q 368 566 338 595 q 397 496 397 537 l 397 397 l 198 397 z "},"b":{"ha":595,"x_min":0,"x_max":595,"o":"m 397 198 l 397 397 l 496 397 q 566 368 537 397 q 595 297 595 338 q 566 227 595 256 q 496 198 537 198 l 397 198 m 99 0 q 29 29 58 0 q 0 99 0 58 l 0 992 l 198 992 l 198 496 q 227 566 198 537 q 297 595 256 595 q 368 566 338 595 q 397 496 397 537 l 397 397 l 198 397 l 198 198 l 397 198 l 397 0 l 198 0 l 198 99 q 169 29 198 58 q 99 0 140 0 l 99 0 z "},"c":{"ha":595,"x_min":0,"x_max":595,"o":"m 198 0 l 198 198 l 397 198 l 397 0 l 198 0 m 397 198 l 397 397 l 595 397 l 595 198 l 397 198 m 0 198 l 0 595 l 198 595 l 198 198 l 0 198 m 198 595 l 198 793 l 496 793 q 566 765 537 793 q 595 694 595 735 q 566 624 595 653 q 496 595 537 595 l 198 595 z "},"d":{"ha":595,"x_min":0,"x_max":595,"o":"m 99 198 q 29 227 58 198 q 0 297 0 256 q 29 368 0 338 q 99 397 58 397 l 198 397 l 198 198 l 99 198 m 198 0 l 198 198 l 397 198 l 397 397 l 198 397 l 198 496 q 227 566 198 537 q 297 595 256 595 q 368 566 338 595 q 397 496 397 537 l 397 992 l 595 992 l 595 99 q 566 29 595 58 q 496 0 537 0 q 426 29 455 0 q 397 99 397 58 l 397 0 l 198 0 z "},"e":{"ha":595,"x_min":0,"x_max":595,"o":"m 198 0 l 198 198 l 496 198 q 566 169 537 198 q 595 99 595 140 q 566 29 595 58 q 496 0 537 0 l 198 0 m 0 198 l 0 595 l 198 595 l 198 198 l 0 198 m 198 397 q 338 455 280 397 q 397 595 397 513 l 496 595 q 566 566 537 595 q 595 496 595 537 q 566 426 595 455 q 496 397 537 397 l 198 397 m 198 595 l 198 793 l 397 793 l 397 595 l 198 595 z "},"f":{"ha":397,"x_min":0,"x_max":397,"o":"m 99 0 q 29 29 58 0 q 0 99 0 58 l 0 793 l 198 793 l 198 595 q 256 455 198 513 q 397 397 315 397 l 198 397 l 198 99 q 169 29 198 58 q 99 0 140 0 l 99 0 m 198 793 l 198 992 l 397 992 l 397 793 l 198 793 z "},"g":{"ha":595,"x_min":0,"x_max":595,"o":"m 99 198 q 29 227 58 198 q 0 297 0 256 q 29 368 0 338 q 99 397 58 397 l 198 397 l 198 198 l 99 198 m 198 -397 q 128 -368 157 -397 q 99 -297 99 -338 q 128 -227 99 -256 q 198 -198 157 -198 l 397 -198 l 397 99 q 368 29 397 58 q 297 0 338 0 q 227 29 256 0 q 198 99 198 58 l 198 198 l 397 198 l 397 397 l 595 397 l 595 -198 q 455 -256 513 -198 q 397 -397 397 -315 l 198 -397 m 198 397 l 198 496 q 227 566 198 537 q 297 595 256 595 q 368 566 338 595 q 397 496 397 537 l 397 397 l 198 397 z "},"h":{"ha":595,"x_min":0,"x_max":595,"o":"m 397 0 l 397 397 l 198 397 q 338 455 280 397 q 397 595 397 513 l 496 595 q 566 566 537 595 q 595 496 595 537 q 566 426 595 455 q 496 397 537 397 l 595 397 l 595 0 l 397 0 m 0 0 l 0 893 q 29 963 0 934 q 99 992 58 992 q 169 963 140 992 q 198 893 198 934 l 198 0 l 0 0 z "},"i":{"ha":198,"x_min":0,"x_max":198,"o":"m 0 0 l 0 595 l 198 595 l 198 0 l 0 0 m 38 799 l 61 870 l 0 915 l 76 915 l 99 987 l 122 915 l 198 915 l 137 870 l 160 799 l 160 799 l 99 843 l 38 799 l 38 799 z "},"j":{"ha":198,"x_min":-397,"x_max":198,"o":"m -198 -397 l -198 -198 q -140 -338 -198 -280 q 0 -397 -82 -397 l -198 -397 m -397 -198 l -397 0 l -198 0 l -198 -198 l -397 -198 m 0 -397 l 0 595 l 198 595 l 198 -397 l 0 -397 m 38 799 l 61 870 l 0 915 l 76 915 l 99 987 l 122 915 l 198 915 l 137 870 l 160 799 l 160 799 l 99 843 l 38 799 l 38 799 z "},"k":{"ha":595,"x_min":0,"x_max":595,"o":"m 397 0 l 397 198 l 595 198 l 595 0 l 397 0 m 397 198 q 257 256 315 198 q 198 395 199 314 q 228 326 199 355 q 297 297 257 297 q 368 327 338 297 q 397 397 397 356 l 397 198 l 397 198 m 397 397 l 397 595 l 595 595 l 595 397 l 397 397 m 0 0 l 0 893 q 29 963 0 934 q 99 992 58 992 q 169 963 140 992 q 198 893 198 934 l 198 0 l 0 0 z "},"l":{"ha":198,"x_min":-198,"x_max":198,"o":"m 99 0 q 29 29 58 0 q 0 99 0 58 l 0 397 l 198 397 l 198 99 q 169 29 198 58 q 99 0 140 0 l 99 0 m -198 397 l -198 595 l 0 595 l 0 397 l -198 397 m 0 595 l 0 992 l 198 992 l 198 595 l 0 595 z "},"m":{"ha":992,"x_min":0,"x_max":992,"o":"m 793 0 l 793 397 l 595 397 q 735 455 677 397 q 793 595 793 513 l 992 595 l 992 0 l 793 0 m 0 0 l 0 793 l 198 793 l 198 0 l 0 0 m 397 0 l 397 694 q 426 765 397 735 q 496 793 455 793 q 566 765 537 793 q 595 694 595 735 l 595 0 l 397 0 m 198 793 l 198 992 l 397 992 l 397 793 l 198 793 z "},"n":{"ha":595,"x_min":0,"x_max":595,"o":"m 0 0 l 0 694 q 29 765 0 735 q 99 793 58 793 q 169 765 140 793 q 198 694 198 735 l 198 0 l 0 0 m 496 0 q 426 29 455 0 q 397 99 397 58 l 397 595 l 198 595 q 338 653 280 595 q 397 793 397 711 l 595 793 l 595 99 q 566 29 595 58 q 496 0 537 0 l 496 0 z "},"o":{"ha":595,"x_min":0,"x_max":595,"o":"m 297 0 q 227 29 256 0 q 198 99 198 58 l 198 198 l 397 198 l 397 99 q 368 29 397 58 q 297 0 338 0 l 297 0 m 99 198 q 29 227 58 198 q 0 297 0 256 q 29 368 0 338 q 99 397 58 397 l 198 397 l 198 198 l 99 198 m 397 198 l 397 397 l 496 397 q 566 368 537 397 q 595 297 595 338 q 566 227 595 256 q 496 198 537 198 l 397 198 m 198 397 l 198 496 q 227 566 198 537 q 297 595 256 595 q 368 566 338 595 q 397 496 397 537 l 397 397 l 198 397 z "},"p":{"ha":595,"x_min":0,"x_max":595,"o":"m 0 -397 l 0 397 l 198 397 l 198 198 l 397 198 l 397 99 q 368 29 397 58 q 297 0 338 0 q 227 29 256 0 q 198 99 198 58 l 198 -397 l 0 -397 m 397 198 l 397 397 l 496 397 q 566 368 537 397 q 595 297 595 338 q 566 227 595 256 q 496 198 537 198 l 397 198 m 198 397 l 198 595 l 397 595 l 397 397 l 198 397 z "},"q":{"ha":793,"x_min":0,"x_max":793,"o":"m 99 198 q 29 227 58 198 q 0 297 0 256 q 29 368 0 338 q 99 397 58 397 l 198 397 l 198 198 l 99 198 m 397 -397 l 397 99 q 368 29 397 58 q 297 0 338 0 q 227 29 256 0 q 198 99 198 58 l 198 198 l 397 198 l 397 397 l 595 397 l 595 -198 q 624 -269 595 -239 q 694 -297 653 -297 q 764 -269 735 -297 q 793 -199 793 -240 q 735 -339 793 -281 q 595 -397 677 -397 l 397 -397 m 198 397 l 198 595 l 397 595 l 397 397 l 198 397 z "},"r":{"ha":595,"x_min":0,"x_max":595,"o":"m 397 397 l 397 595 q 455 455 397 513 q 595 397 513 397 l 397 397 m 0 0 l 0 694 q 29 765 0 735 q 99 793 58 793 q 169 765 140 793 q 198 694 198 735 l 198 793 l 397 793 l 397 595 l 198 595 l 198 0 l 0 0 z "},"s":{"ha":397,"x_min":0,"x_max":397,"o":"m 198 0 q 58 58 116 0 q 0 197 0 115 q 30 127 0 156 q 99 99 58 99 q 169 128 140 99 q 198 198 198 157 l 198 0 l 198 0 m 198 198 l 198 397 l 397 397 l 397 198 l 198 198 m 0 397 l 0 595 l 198 595 l 198 397 l 0 397 m 198 595 l 198 793 q 338 736 280 793 q 397 596 396 678 l 397 596 q 367 666 396 637 q 297 694 338 694 q 227 665 256 694 q 198 595 198 636 l 198 595 z "},"t":{"ha":595,"x_min":0,"x_max":595,"o":"m 198 0 l 198 397 q 338 455 280 397 q 397 595 397 513 l 496 595 q 566 566 537 595 q 595 496 595 537 q 566 426 595 455 q 496 397 537 397 l 397 397 l 397 0 l 198 0 m 99 595 q 29 624 58 595 q 0 694 0 653 q 29 765 0 735 q 99 793 58 793 l 198 793 l 198 992 l 397 992 l 397 595 l 99 595 z "},"u":{"ha":595,"x_min":0,"x_max":595,"o":"m 0 0 l 0 793 l 198 793 l 198 0 l 0 0 m 198 0 q 338 58 280 0 q 397 198 397 116 l 397 694 q 426 765 397 735 q 496 793 455 793 q 566 765 537 793 q 595 694 595 735 l 595 0 l 198 0 z "},"v":{"ha":595,"x_min":0,"x_max":595,"o":"m 397 0 q 257 58 315 0 q 198 197 199 115 q 228 127 199 156 q 297 99 257 99 q 368 128 338 99 q 397 198 397 157 l 397 0 l 397 0 m 0 198 l 0 694 q 29 765 0 735 q 99 793 58 793 q 169 765 140 793 q 198 694 198 735 l 198 198 l 0 198 m 397 198 l 397 694 q 426 765 397 735 q 496 793 455 793 q 566 765 537 793 q 595 694 595 735 l 595 198 l 397 198 z "},"w":{"ha":992,"x_min":0,"x_max":992,"o":"m 595 0 l 595 198 q 735 256 677 198 q 793 397 793 315 l 793 595 l 992 595 l 992 198 l 793 198 l 793 0 l 595 0 m 198 0 l 198 198 q 338 256 280 198 q 397 397 397 315 l 397 694 q 426 765 397 735 q 496 793 455 793 q 566 765 537 793 q 595 694 595 735 l 595 198 l 397 198 l 397 0 l 198 0 m 0 198 l 0 992 l 198 992 l 198 198 l 0 198 z "},"x":{"ha":595,"x_min":0,"x_max":595,"o":"m 0 0 l 0 397 l 198 397 l 198 0 l 0 0 m 595 0 q 537 140 595 82 q 397 198 479 198 l 397 397 l 595 397 l 595 0 l 595 0 m 198 397 l 198 595 l 397 595 l 397 397 l 198 397 m 397 595 l 397 793 l 595 793 l 595 595 l 397 595 m 0 595 l 0 992 q 58 852 0 910 q 198 793 116 793 l 198 595 l 0 595 z "},"y":{"ha":595,"x_min":0,"x_max":595,"o":"m 0 198 l 0 496 q 29 566 0 537 q 99 595 58 595 q 169 566 140 595 q 198 496 198 537 l 198 198 l 0 198 m 198 -397 q 128 -368 157 -397 q 99 -297 99 -338 q 128 -227 99 -256 q 198 -198 157 -198 l 397 -198 l 397 99 q 368 29 397 58 q 297 0 338 0 q 227 29 256 0 q 198 99 198 58 l 198 198 l 397 198 l 397 496 q 426 566 397 537 q 496 595 455 595 q 566 566 537 595 q 595 496 595 537 l 595 -198 q 455 -256 513 -198 q 397 -397 397 -315 l 198 -397 z "},"z":{"ha":397,"x_min":0,"x_max":397,"o":"m 99 0 q 29 29 58 0 q 0 99 0 58 l 0 397 l 198 397 l 198 198 q 227 128 198 157 q 297 99 256 99 q 367 127 338 99 q 397 197 396 156 q 338 58 396 115 q 198 0 280 0 l 198 99 q 169 29 198 58 q 99 0 140 0 l 99 0 m 198 397 l 198 595 q 169 665 198 636 q 99 694 140 694 q 30 666 58 694 q 0 596 0 637 q 58 736 0 678 q 198 793 116 793 l 198 694 q 227 765 198 735 q 297 793 256 793 q 368 765 338 793 q 397 694 397 735 l 397 397 l 198 397 z "}}}
